Coordinates
version=1
nRows=60
nColumns=12
inDegrees=yes

Units are S.I. units (second, meters, Newtons, ...)
Angles are in degrees

endheader
time	SC_y	SC_z	SC_x	AC_y	AC_z	AC_x	GH_y	GH_z	GH_yy	EL_x	PS_y
       0.0              -14.82          19.59          16.67          62.17         -5.261          11.48          87.07         -3.332         -78.78          43.35          114.3
   0.01646              -14.82          19.59          16.67          62.16         -5.262          11.47          87.08         -3.326         -78.77          43.36          114.3
   0.03291              -14.83          19.59          16.66          62.16         -5.262          11.47           87.1         -3.321         -78.75          43.36          114.3
   0.04937              -14.83           19.6          16.66          62.15         -5.263          11.47          87.11         -3.314         -78.74          43.37          114.3
   0.06583              -14.84           19.6          16.66          62.15         -5.263          11.46          87.12         -3.308         -78.72          43.37          114.3
   0.08229              -14.85           19.6          16.66          62.14         -5.264          11.46          87.14           -3.3         -78.71          43.38          114.3
   0.09874              -14.85           19.6          16.65          62.13         -5.265          11.46          87.15         -3.293         -78.69          43.39          114.3
    0.1152              -14.86           19.6          16.65          62.13         -5.265          11.45          87.17         -3.285         -78.67          43.39          114.3
    0.1317              -14.87          19.61          16.65          62.12         -5.266          11.45          87.19         -3.276         -78.65           43.4          114.3
    0.1481              -14.88          19.61          16.64          62.11         -5.267          11.44          87.21         -3.266         -78.63          43.41          114.3
    0.1646              -14.89          19.61          16.64          62.11         -5.268          11.44          87.23         -3.256         -78.61          43.42          114.3
     0.181               -14.9          19.61          16.64           62.1         -5.269          11.43          87.25         -3.245         -78.59          43.43          114.3
    0.1975              -14.91          19.62          16.63          62.09          -5.27          11.42          87.28         -3.234         -78.56          43.44          114.3
    0.2139              -14.92          19.62          16.63          62.08         -5.271          11.42           87.3         -3.221         -78.53          43.45          114.2
    0.2304              -14.93          19.62          16.62          62.07         -5.272          11.41          87.33         -3.207          -78.5          43.46          114.2
    0.2469              -14.94          19.63          16.62          62.05         -5.274           11.4          87.36         -3.192         -78.47          43.47          114.2
    0.2633              -14.96          19.63          16.61          62.04         -5.275          11.39          87.39         -3.176         -78.43          43.49          114.2
    0.2798              -14.97          19.63          16.61          62.03         -5.277          11.38          87.43         -3.159         -78.39           43.5          114.2
    0.2962              -14.99          19.64           16.6          62.01         -5.278          11.37          87.47          -3.14         -78.35          43.52          114.2
    0.3127              -15.01          19.64          16.59          61.99          -5.28          11.36          87.51         -3.119          -78.3          43.54          114.2
    0.3291              -15.03          19.65          16.58          61.97         -5.282          11.35          87.56         -3.095         -78.25          43.56          114.2
    0.3456              -15.05          19.66          16.57          61.95         -5.285          11.34          87.61          -3.07         -78.19          43.58          114.2
    0.3621              -15.08          19.66          16.56          61.93         -5.287          11.32          87.67         -3.042         -78.13          43.61          114.1
    0.3785              -15.11          19.67          16.55          61.91          -5.29           11.3          87.74         -3.011         -78.06          43.63          114.1
     0.395              -15.14          19.68          16.54          61.88         -5.293          11.29          87.81         -2.976         -77.99          43.66          114.1
    0.4114              -15.17          19.69          16.53          61.85         -5.297          11.26          87.89         -2.938          -77.9           43.7          114.1
    0.4279              -15.21           19.7          16.51          61.81           -5.3          11.24          87.98         -2.895          -77.8          43.74          114.1
    0.4443              -15.25          19.71          16.49          61.77         -5.305          11.21          88.08         -2.846          -77.7          43.78          114.0
    0.4608               -15.3          19.72          16.47          61.73          -5.31          11.19          88.19         -2.791         -77.57          43.83          114.0
    0.4773              -15.36          19.74          16.45          61.68         -5.315          11.15          88.32         -2.729         -77.44          43.88          114.0
    0.4937              -15.42          19.76          16.43          61.62         -5.322          11.11          88.46         -2.658         -77.28          43.94          113.9
    0.5102               -15.5          19.78           16.4          61.55         -5.329          11.07          88.63         -2.576          -77.1          44.02          113.9
    0.5266              -15.58           19.8          16.36          61.47         -5.338          11.02          88.83         -2.482         -76.89           44.1          113.8
    0.5431              -15.68          19.83          16.32          61.38         -5.347          10.96          89.05         -2.372         -76.64          44.19          113.8
    0.5595               -15.8          19.86          16.28          61.28         -5.359          10.89          89.32         -2.244         -76.36          44.31          113.7
     0.576              -15.93           19.9          16.23          61.16         -5.373          10.81          89.63         -2.093         -76.02          44.44          113.6
    0.5925              -16.09          19.94          16.16          61.01         -5.389          10.71           90.0         -1.913         -75.62           44.6          113.5
    0.6089              -16.29          19.99          16.08          60.84         -5.408          10.59          90.44         -1.698         -75.14          44.79          113.4
    0.6254              -16.52          20.06          15.99          60.62         -5.431          10.45          90.98         -1.438         -74.56          45.02          113.3
    0.6418              -16.81          20.14          15.88          60.36          -5.46          10.28          91.64          -1.12         -73.85           45.3          113.1
    0.6583              -17.16          20.23          15.74          60.04         -5.495          10.07          92.45        -0.7271         -72.98          45.64          112.9
    0.6748               -17.6          20.35          15.56          59.64         -5.539          9.803          93.46        -0.2375         -71.89          46.07          112.6
    0.6912              -18.16           20.5          15.34          59.14         -5.595          9.469          94.73         0.3792         -70.52          46.61          112.2
    0.7077              -18.86           20.7          15.06           58.5         -5.665          9.045          96.35          1.163         -68.77           47.3          111.8
    0.7241              -19.76          20.94           14.7          57.68         -5.756          8.502          98.42          2.167         -66.54          48.18          111.3
    0.7406              -20.92          21.26          14.24          56.64         -5.872          7.805          101.1          3.454         -63.67          49.32          110.5
     0.757               -22.4          21.67          13.65          55.29          -6.02          6.915          104.5          5.099         -60.01          50.76          109.6
    0.7735              -24.26          22.18          12.91          53.61         -6.206          5.796          108.7          7.167         -55.41          52.58          108.5
      0.79              -26.53           22.8          12.01          51.55         -6.432          4.432          113.9          9.688          -49.8           54.8          107.1
    0.8064              -29.16          23.51          10.97          49.17         -6.695          2.851          120.0          12.61          -43.3          57.36          105.4
    0.8229               -32.0          24.29          9.838          46.59          -6.98           1.14          126.5          15.77         -36.26          60.15          103.7
    0.8393              -34.85          25.07          8.707          44.02         -7.264        -0.5722          133.0          18.94         -29.21          62.93          101.9
    0.8558              -37.47          25.79          7.663          41.63         -7.527         -2.153          139.1          21.86         -22.71          65.49          100.3
    0.8722              -39.74          26.41          6.762          39.58         -7.754         -3.517          144.3          24.38          -17.1          67.71          98.89
    0.8887               -41.6          26.92          6.023          37.89          -7.94         -4.636          148.5          26.45          -12.5          69.53          97.74
    0.9052              -43.08          27.33          5.434          36.55         -8.088         -5.526          151.9          28.09         -8.838          70.97          96.82
    0.9216              -44.24          27.64          4.974           35.5         -8.204         -6.223          154.6          29.38         -5.971          72.11          96.11
    0.9381              -45.14          27.89          4.615          34.69         -8.294         -6.766          156.6          30.38         -3.738          72.99          95.55
    0.9545              -45.85          28.08          4.335          34.05         -8.365          -7.19          158.3          31.17         -1.993          73.68          95.11
     0.971               -46.4          28.23          4.115          33.54          -8.42         -7.524          159.5          31.78        -0.6204          74.22          94.77
